<svg version="1.2" xmlns="http://www.w3.org/2000/svg" viewBox="0 0 226 225" width="500" height="498">
	<title>crystal_brand_logo-svg</title>
	<style>
		.s0 { fill: #91c11f } 
		.s1 { fill: #4ba0db } 
	</style>
	<g>
	</g>
	<g>
		<path id="Factory Heathcare" class="s0" aria-label="Factory Heathcare"  d="m29.9 190.6q0.8 0.1 1.1 0.5 0.3 0.3 0.3 0.9 0 1.9-2 1.7l-1-0.1q-1.6-0.1-3.2-0.2-1.5-0.1-3.3-0.1h-1.2q-0.3 4-0.6 7.3h4.6q1 0 1.3 0.3 0.4 0.4 0.4 0.9 0 1-0.6 1.5-0.5 0.5-1.5 0.5h-4.6l-0.2 1.2q-0.5 4.4-2.4 6.3-1.8 1.9-5.1 1.9-1.8 0-3.4-0.8-1.5-0.8-2.2-1.9-0.3-0.5-0.3-1.1 0-0.7 0.3-1.2 0.3-0.4 0.8-0.4 0.3 0 0.6 0.2 0.3 0.2 0.8 0.8 1.3 1.7 3.2 1.7 1.5 0 2.6-1.2 1-1.3 1.3-4l0.2-1.5h-1.3q-0.6 0-1.1-0.3-0.4-0.4-0.4-1 0-0.9 0.4-1.3 0.4-0.5 1.3-0.5 0.7 0 1.5 0 0.3-3 0.7-7.2-3 0.3-4.1 1-1.2 0.6-1.2 1.9 0 1 0.5 1.8 0.2 0.2 0.2 0.5 0 0.5-0.6 0.9-0.5 0.3-1.2 0.3-0.7 0-1.2-0.4-0.4-0.3-0.7-1.1-0.3-0.9-0.3-1.9 0-3.3 3.5-4.9 3.4-1.5 10-1.5 4.6 0 8.1 0.5zm-1 22.5q-1.7 0-2.7-1.2-1-1.2-1-3.2 0-2.1 1-4 1-2 2.7-3.1 1.6-1.2 3.5-1.2 0.6 0 0.8 0.2 0.2 0.2 0.3 0.8 0.6-0.1 1.2-0.1 1.4 0 1.4 1 0 0.5-0.5 2.7-0.6 3.1-0.6 4.3 0 0.4 0.2 0.6 0.2 0.3 0.6 0.3 0.5 0 1.2-0.7 0.7-0.7 2-2.1 0.3-0.4 0.7-0.4 0.3 0 0.5 0.3 0.3 0.3 0.3 0.9 0 1.1-0.6 1.7-1.1 1.3-2.3 2.3-1.3 0.9-2.4 0.9-0.9 0-1.7-0.6-0.7-0.6-1.1-1.6-1.4 2.2-3.5 2.2zm1-2.7q0.6 0 1.1-0.7 0.5-0.7 0.8-1.9l1-4.9q-1.2 0-2.1 0.8-1 0.8-1.5 2.2-0.6 1.3-0.6 2.9 0 0.8 0.3 1.2 0.4 0.4 1 0.4zm13.5 2.7q-2.6 0-4.1-1.4-1.5-1.6-1.5-4 0-2.2 0.9-3.9 0.9-1.6 2.2-2.5 1.4-0.9 2.9-0.9 1.5 0 2.3 0.9 0.9 0.9 0.9 2.3 0 1.1-0.6 1.9-0.4 0.8-1.3 0.8-0.5 0-0.8-0.3-0.3-0.2-0.3-0.7 0-0.2 0.1-0.4 0-0.2 0.1-0.4 0.1-0.4 0.1-0.7 0-0.4-0.2-0.5-0.2-0.2-0.5-0.2-0.6 0-1.1 0.5-0.6 0.6-0.9 1.5-0.3 1-0.3 2.1 0 3.1 2.7 3.1 1.1 0 2.4-0.7 1.3-0.8 2.5-2.2 0.3-0.4 0.7-0.4 0.4 0 0.6 0.3 0.2 0.3 0.2 0.9 0 1-0.5 1.7-1.3 1.5-3.1 2.4-1.7 0.8-3.4 0.8zm17-6.1q0.3 0 0.5 0.3 0.2 0.3 0.2 0.9 0 1.1-0.5 1.7-1.1 1.4-2.5 2.3-1.4 0.9-3.2 0.9-5.5 0-5.5-7.7 0-1.2 0.1-2.4h-1.1q-0.8 0-1.1-0.3-0.2-0.3-0.2-1 0-1.5 1.2-1.5h1.5q0.5-2.9 1.4-5.4 1-2.5 2.3-3.9 1.3-1.5 2.9-1.5 1.1 0 1.8 1 0.6 1 0.6 2.5 0 4.2-3.5 7.3h3q0.5 0 0.6 0.2 0.2 0.2 0.2 0.7 0 1.9-3 1.9h-3.3q-0.1 1.3-0.1 2.1 0 2.8 0.7 3.9 0.7 1.2 2.1 1.2 1.2 0 2-0.7 0.9-0.7 2.1-2.1 0.4-0.4 0.8-0.4zm-4.7-15q-0.5 0-1 1-0.5 1-0.9 2.9-0.4 1.7-0.7 3.9 1.6-1.4 2.3-3.1 0.8-1.7 0.8-3.1 0-1.6-0.5-1.6zm17 12.7q0.4 0 0.6 0.4 0.1 0.3 0.1 0.9 0 1.2-0.7 1.5-1.7 0.6-3.6 0.6-0.5 2.3-2 3.7-1.5 1.3-3.5 1.3-1.6 0-2.7-0.7-1.2-0.8-1.8-2.1-0.6-1.3-0.6-2.8 0-2.1 0.8-3.7 0.8-1.6 2.2-2.5 1.4-0.9 3-0.9 2.1 0 3.3 1.4 1.3 1.4 1.5 3.5 1.3-0.1 3-0.5 0.3-0.1 0.4-0.1zm-8.8 5.6q0.8 0 1.4-0.7 0.7-0.7 0.9-2.1-0.8-0.5-1.3-1.4-0.4-1-0.4-2 0-0.4 0.1-0.8h-0.2q-1.1 0-1.8 1-0.7 1-0.7 2.9 0 1.5 0.6 2.3 0.6 0.8 1.4 0.8zm9.1 2.8q-1 0-1.4-1-0.4-1.1-0.4-3.5 0-3.5 1-6.7 0.2-0.8 0.8-1.1 0.5-0.4 1.5-0.4 0.6 0 0.8 0.2 0.2 0.1 0.2 0.5 0 0.4-0.4 1.9-0.3 1.1-0.4 1.9-0.2 0.8-0.3 2 0.9-2.3 2-3.8 1.1-1.4 2.1-2.1 1.1-0.6 2-0.6 1.8 0 1.8 1.8 0 0.3-0.3 1.7-0.2 1.1-0.2 1.3 0 1 0.7 1 0.7 0 1.9-1.2 0.4-0.4 0.8-0.4 0.3 0 0.5 0.4 0.2 0.3 0.2 0.8 0 1-0.5 1.5-0.8 0.8-1.8 1.4-1 0.5-2.1 0.5-1.5 0-2.2-0.7-0.8-0.7-0.8-2 0-0.4 0.1-0.8 0.1-0.5 0.1-0.7 0-0.5-0.3-0.5-0.4 0-1.1 1-0.6 0.9-1.3 2.3-0.6 1.5-1 3.2-0.3 1.2-0.7 1.7-0.4 0.4-1.3 0.4zm24.2-6.1q0.4 0 0.6 0.4 0.2 0.3 0.2 0.8 0 0.6-0.2 1-0.2 0.3-0.6 0.6l-5.2 3.5q-1 5.6-2.7 8.8-1.6 3.2-4.2 3.2-1.4 0-2.2-0.9-0.9-0.8-0.9-2.2 0-1.3 0.6-2.6 0.6-1.3 2.1-3 1.6-1.7 4.5-4l0.1-0.6q0.2-1 0.4-2.8-0.5 1.9-1.5 2.9-1 1-2 1-1.3 0-2-1.1-0.8-1.1-0.8-2.8 0-2 0.3-3.7 0.2-1.7 0.9-3.6 0.2-0.8 0.7-1.1 0.5-0.4 1.6-0.4 0.6 0 0.8 0.2 0.2 0.2 0.2 0.6 0 0.2-0.3 1.4-0.2 1-0.4 1.8-0.2 1.1-0.4 2.2-0.2 1-0.2 1.6 0 1 0.6 1 0.4 0 1-0.8 0.6-0.8 1.3-2.4 0.7-1.7 1.4-4.1 0.2-0.8 0.6-1.1 0.5-0.4 1.4-0.4 0.6 0 0.8 0.2 0.3 0.1 0.3 0.5 0 0.7-0.7 4.7l-0.7 4.3q2-1.6 4-2.9 0.4-0.2 0.6-0.2zm-11.8 15.7q0.7 0 1.5-1.6 0.9-1.6 1.7-5.2-2.1 1.7-3 3.2-0.9 1.4-0.9 2.5 0 0.5 0.1 0.8 0.2 0.3 0.6 0.3zm43.1-15.7q0.3 0 0.5 0.3 0.3 0.3 0.3 0.9 0 1-0.6 1.7-2.6 3.2-5.7 3.2-2.6 0-4.1-2-1.6-2-1.6-5.8 0-0.9 0.1-1.8-1.8 0.3-3.9 0.5-1.4 0.1-1.9 0.1-0.6 2.7-1.5 6.7-0.6 2.4-2.2 2.4-1.7 0-1.7-1.6 0-0.3 0.1-0.9 0.9-3.7 1.5-6.3h-1.3q-0.9 0-1.3-0.3-0.4-0.3-0.4-1 0-0.9 0.5-1.3 0.5-0.4 1.7-0.5h1.4q0.7-3.8 0.7-5.8 0-1.3-0.4-1.8-0.3-0.4-1-0.4-1.9 0-4.2 3.1-0.4 0.5-0.8 0.5-0.4 0-0.7-0.3-0.2-0.4-0.2-0.9 0-0.9 0.6-1.8 1.2-1.7 3-2.7 1.9-1.1 3.7-1.1 1.8 0 2.7 1.2 1 1.2 1 3.7 0 2.3-0.7 6.1l2.7-0.1q1.7-0.1 2.9-0.3 0.5-3 1.5-5.5 1-2.6 2.5-4.3 1.5-1.6 3.3-1.6 1.3 0 2.1 1.1 0.8 1.1 0.8 2.8 0 6.7-6.8 9.3-0.1 1.1-0.1 2.2 0 2.8 0.7 4 0.7 1.2 2 1.2 1.1 0 2-0.5 0.9-0.6 2.1-2 0.3-0.4 0.7-0.4zm-3.6-15.3q-0.6 0-1.3 1.1-0.7 1-1.3 2.9-0.6 1.9-0.9 4.1 2.2-0.9 3.2-2.6 1-1.6 1-4.2 0-0.6-0.2-1-0.2-0.3-0.5-0.3zm17.7 15.3q0.4 0 0.6 0.3 0.2 0.3 0.2 0.9 0 1.1-0.5 1.7-1 1.2-2.9 2.2-1.8 1-3.9 1-2.8 0-4.4-1.5-1.5-1.5-1.5-4.2 0-1.9 0.8-3.5 0.7-1.6 2.1-2.5 1.4-1 3.2-1 1.5 0 2.5 1 0.9 0.9 0.9 2.5 0 1.8-1.3 3.2-1.3 1.3-4.5 2.1 0.6 1.2 2.5 1.2 1.3 0 2.8-0.8 1.6-0.9 2.7-2.2 0.3-0.4 0.7-0.4zm-6.8-3.9q-1 0-1.7 1.1-0.7 1.2-0.7 2.8v0.1q1.6-0.4 2.6-1.1 0.9-0.8 0.9-1.8 0-0.5-0.3-0.8-0.3-0.3-0.8-0.3zm8.6 10q-1.7 0-2.7-1.2-1-1.2-1-3.2 0-2.1 1-4 1-2 2.6-3.1 1.7-1.2 3.6-1.2 0.6 0 0.8 0.2 0.2 0.2 0.3 0.8 0.6-0.1 1.2-0.1 1.3 0 1.3 1 0 0.5-0.4 2.7-0.6 3.1-0.6 4.3 0 0.4 0.2 0.6 0.2 0.3 0.5 0.3 0.5 0 1.3-0.7 0.7-0.7 1.9-2.1 0.4-0.4 0.8-0.4 0.3 0 0.5 0.3 0.2 0.3 0.2 0.9 0 1.1-0.5 1.7-1.1 1.3-2.3 2.3-1.3 0.9-2.4 0.9-0.9 0-1.7-0.6-0.7-0.6-1.1-1.6-1.4 2.2-3.5 2.2zm0.9-2.7q0.6 0 1.2-0.7 0.5-0.7 0.8-1.9l1-4.9q-1.2 0-2.1 0.8-1 0.8-1.6 2.2-0.5 1.3-0.5 2.9 0 0.8 0.3 1.2 0.4 0.4 0.9 0.4zm20.5-3.4q0.3 0 0.5 0.3 0.2 0.3 0.2 0.9 0 1.1-0.5 1.7-1.1 1.4-2.5 2.3-1.4 0.9-3.2 0.9-5.5 0-5.5-7.7 0-1.2 0.1-2.4h-1q-0.9 0-1.2-0.3-0.2-0.3-0.2-1 0-1.5 1.2-1.5h1.5q0.5-2.9 1.4-5.4 1-2.5 2.3-3.9 1.4-1.5 2.9-1.5 1.1 0 1.8 1 0.6 1 0.6 2.5 0 4.2-3.5 7.3h3q0.5 0 0.7 0.2 0.1 0.2 0.1 0.7 0 1.9-3 1.9h-3.3q-0.1 1.3-0.1 2.1 0 2.8 0.7 3.9 0.7 1.2 2.1 1.2 1.2 0 2.1-0.7 0.8-0.7 2.1-2.1 0.3-0.4 0.7-0.4zm-4.7-15q-0.4 0-1 1-0.4 1-0.9 2.9-0.4 1.7-0.7 3.9 1.6-1.4 2.3-3.1 0.9-1.7 0.9-3.1 0-1.6-0.6-1.6zm18.2 15q0.4 0 0.6 0.3 0.2 0.3 0.2 0.9 0 1.1-0.5 1.7-1.3 1.4-2.6 2.3-1.3 0.9-3 0.9-1.3 0-2-0.7-0.7-0.9-0.7-2.4 0-0.7 0.3-2.7 0.4-1.7 0.4-2.3 0-0.5-0.3-0.5-0.4 0-1 1-0.6 0.9-1.3 2.3-0.6 1.5-1 3.2-0.6 2.1-2.6 2.1-0.8 0-1.1-0.5-0.2-0.6-0.2-2.1 0-0.9 0-1.4v-2.2q0-4.1 0.9-8.6 0.8-4.6 2.5-7.6 1.7-3.1 4-3.1 1.2 0 2 1.1 0.8 1.1 0.8 2.8 0 2.7-1.6 5.6-1.6 2.9-5.2 6.9-0.1 1.4-0.1 2.8 0.9-2.3 2-3.7 1.1-1.4 2.1-2.1 1.1-0.6 2-0.6 1.8 0 1.8 1.8 0 1-0.6 3.8-0.5 2.3-0.5 3.1 0 1.1 0.7 1.1 0.6 0 1.3-0.7 0.8-0.7 2-2.1 0.3-0.4 0.7-0.4zm-8-16.7q-0.5 0-1.1 1.4-0.6 1.4-1.1 3.7-0.6 2.4-0.9 5.2 1.7-2 2.7-4.3 1.2-2.3 1.2-4.2 0-0.9-0.2-1.3-0.2-0.5-0.6-0.5zm11.8 22.8q-2.7 0-4.2-1.4-1.4-1.6-1.4-4 0-2.2 0.8-3.9 0.9-1.6 2.3-2.5 1.4-0.9 2.9-0.9 1.5 0 2.3 0.9 0.8 0.9 0.8 2.3 0 1.1-0.5 1.9-0.5 0.8-1.3 0.8-0.5 0-0.8-0.3-0.3-0.2-0.3-0.7 0-0.2 0-0.4 0.1-0.2 0.1-0.4 0.1-0.4 0.1-0.7 0-0.4-0.2-0.5-0.1-0.2-0.4-0.2-0.7 0-1.2 0.5-0.5 0.6-0.9 1.5-0.3 1-0.3 2.1 0 3.1 2.7 3.1 1.1 0 2.4-0.7 1.3-0.8 2.5-2.2 0.4-0.4 0.8-0.4 0.3 0 0.5 0.3 0.2 0.3 0.2 0.9 0 1-0.5 1.7-1.2 1.5-3 2.4-1.8 0.8-3.4 0.8zm7.8 0q-1.7 0-2.7-1.2-1-1.2-1-3.2 0-2.1 1-4 1-2 2.7-3.1 1.6-1.2 3.5-1.2 0.6 0 0.8 0.2 0.2 0.2 0.3 0.8 0.6-0.1 1.2-0.1 1.4 0 1.4 1 0 0.5-0.5 2.7-0.6 3.1-0.6 4.3 0 0.4 0.2 0.6 0.2 0.3 0.6 0.3 0.5 0 1.2-0.7 0.7-0.7 2-2.1 0.3-0.4 0.7-0.4 0.3 0 0.5 0.3 0.3 0.3 0.3 0.9 0 1.1-0.6 1.7-1.1 1.3-2.3 2.3-1.3 0.9-2.4 0.9-0.9 0-1.7-0.6-0.7-0.6-1.1-1.6-1.4 2.2-3.5 2.2zm1-2.7q0.6 0 1.1-0.7 0.5-0.7 0.8-1.9l1-4.9q-1.1 0-2.1 0.8-1 0.8-1.5 2.2-0.6 1.3-0.6 2.9 0 0.8 0.3 1.2 0.4 0.4 1 0.4zm10.3 2.7q-1 0-1.5-1-0.4-1.1-0.4-3.5 0-3.5 1-6.7 0.3-0.8 0.8-1.1 0.6-0.4 1.6-0.4 0.5 0 0.7 0.2 0.2 0.1 0.2 0.5 0 0.4-0.4 1.9-0.2 1.1-0.4 1.9-0.2 0.8-0.3 2 0.9-2.3 2-3.8 1.1-1.4 2.2-2.1 1.1-0.6 2-0.6 1.7 0 1.7 1.8 0 0.3-0.2 1.7-0.2 1.1-0.2 1.3 0 1 0.6 1 0.8 0 2-1.2 0.3-0.4 0.7-0.4 0.4 0 0.5 0.4 0.3 0.3 0.3 0.8 0 1-0.6 1.5-0.7 0.8-1.8 1.4-1 0.5-2.1 0.5-1.4 0-2.2-0.7-0.7-0.7-0.7-2 0-0.4 0.1-0.8 0-0.5 0-0.7 0-0.5-0.3-0.5-0.4 0-1.1 1-0.6 0.9-1.2 2.3-0.7 1.5-1.1 3.2-0.3 1.2-0.7 1.7-0.4 0.4-1.2 0.4zm22.4-6.1q0.3 0 0.5 0.3 0.2 0.3 0.2 0.9 0 1.1-0.5 1.7-1 1.2-2.8 2.2-1.8 1-3.9 1-2.8 0-4.4-1.5-1.6-1.5-1.6-4.2 0-1.9 0.8-3.5 0.8-1.6 2.2-2.5 1.4-1 3.1-1 1.6 0 2.6 1 0.9 0.9 0.9 2.5 0 1.8-1.3 3.2-1.4 1.3-4.6 2.1 0.7 1.2 2.6 1.2 1.2 0 2.8-0.8 1.5-0.9 2.7-2.2 0.3-0.4 0.7-0.4zm-6.8-3.9q-1 0-1.7 1.1-0.7 1.2-0.7 2.8v0.1q1.6-0.4 2.5-1.1 0.9-0.8 0.9-1.8 0-0.5-0.3-0.8-0.2-0.3-0.7-0.3z"/>
		<path fill-rule="evenodd" class="s0" d="m97 144c-6.5-1.5-10.5-3-16.3-6.1-17.6-9.3-31-27.8-34.5-47.6-1-5.8-1-19 0.1-24.7 1.4-7.4 4.8-16.3 8.9-23 7.6-12.4 20.5-22.7 34.6-27.7 2.9-1 5.4-1.9 5.4-1.9 0.6 0 0 1.9-1 2.9-1.4 1.4-3.8 6.5-6.1 12.9-1.6 4.4-1.7 4.9-1.6 12.4 0 6.9 0.2 8.5 1.5 12.8 2.9 9.7 5.6 14.4 17.4 30 9.6 12.7 13.9 19.1 16.3 24.5 1.8 4 2 5.3 2.3 9.8 0.4 8.9-1.9 14.1-7.3 15.9-5.1 1.7-8.1 0.7-14.1-5-12.1-11.5-22.9-25.6-29-38-1.6-3.2-2.9-5.4-3-5.1-0.5 1.2 2.1 9.2 4.8 15.3 6.4 14.6 17.1 31.7 25.1 40 4.2 4.5 4.2 4.5-3.5 2.6z"/>
	</g>
	<g>
		<path fill-rule="evenodd" class="s1" d="m55.8 181.7c-2-0.5-4.6-3-5.5-5.3-1.3-3.3-0.3-8.3 2-10.7 3.4-3.3 7.8-3.7 11.1-1 1.4 1.2 1.6 1.8 1.5 3.4-0.2 2.2-1.6 3.4-3 2.4-1-0.6-1.1-1.6-0.4-3.7 0.2-1 0.1-1.2-1.2-1.5-3.4-0.7-5.9 1.7-6.5 6.2-0.9 6.8 6.4 11 9.3 5.3 0.9-1.7 2.3-2.1 2.8-0.8 0.3 0.9-2 4.3-3.5 5.1-1.5 0.8-4.6 1.1-6.6 0.6z"/>
		<path fill-rule="evenodd" class="s1" d="m79.9 181.5c-0.7-0.5-1.3-1.9-1.6-4-0.5-2.6-0.8-3.2-2.1-3.8-2.4-1.1-3.1-0.5-3.1 2.6 0 2.6 0.1 2.8 1.7 3.4 2.9 1 1.5 1.8-3.4 1.8-3.6 0-4.5-0.2-4.5-0.9 0-0.5 0.6-0.8 1.5-0.9l1.5-0.2-0.1-6.9c-0.2-6.8-0.2-6.8-1.6-7.2-0.7-0.1-1.3-0.6-1.3-1 0-0.7 1.2-0.8 6.6-0.8 5.9 0 6.8 0.1 8.1 1.1 1.2 0.9 1.6 1.7 1.7 3.4 0.2 1.9 0 2.4-1.4 3.6-1.6 1.4-1.6 1.6-0.9 3.2 0.4 0.9 0.9 2.3 1.1 3.2 0.4 2.2 1.7 1.8 2.1-0.8 0.5-2.8 1.7-2.6 1.5 0.4-0.3 4.1-3 5.8-5.8 3.8zm-1.2-11.1c0.2-0.2 0.5-1 0.7-1.8 0.2-1.1 0.1-1.6-0.9-2.3-1.6-1.1-4.6-1.1-5 0-0.5 1.2-0.5 4.3 0.1 4.8 0.4 0.5 4.5-0.1 5.1-0.7z"/>
		<path fill-rule="evenodd" class="s1" d="m111.9 181.9c-2.6-0.6-4.2-1.5-4.8-2.8-1.4-2.6 0.6-5.1 3-3.8 0.9 0.5 1.1 0.9 0.8 2.4-0.3 1.6-0.2 1.9 1 2.2 1.5 0.4 4-0.1 5-1 2-1.6-0.4-4.1-4.9-5.4-1.2-0.3-2.9-1.2-3.7-2.1-4.4-4.4 1.1-10 8-8.1 2.9 0.8 4.2 2.1 3.9 4.2-0.1 1.3-0.4 1.5-1.9 1.6-1.8 0.2-1.9 0.1-2-2.6 0-1.2-0.2-1.3-2.5-1.2-1.5 0.1-2.7 0.6-3.1 1.1-1.1 1.4 0.3 2.8 4.7 4.7 2.4 1 4.5 2.4 5.1 3.2 1.1 1.4 1.1 1.6 0.4 3.8-0.6 1.4-1.3 2.5-2.2 2.9-1.7 0.8-5.3 1.3-6.8 0.9z"/>
		<path fill-rule="evenodd" class="s1" d="m90.2 181.2c-0.5-0.9 0.2-1.6 1.8-1.6 1.3 0 1.3-0.1 1.1-3.2-0.2-2.5-0.7-3.8-2.8-7q-2.5-4-3.6-4c-1.1 0-2.4-1.2-1.8-1.7 0.4-0.5 7.1-0.5 8.7-0.1 1.6 0.4 1.6 1.2-0.1 1.6-0.8 0.2-1.4 0.5-1.4 0.7 0 0.7 2.8 5 3.3 5 0.6 0 3.2-3.8 3.2-4.7 0-0.3-0.5-0.8-1.1-0.9-0.7-0.2-0.9-0.6-0.7-1.2 0.5-1.2 8.1-1 8.1 0.2 0 0.4-0.8 1-1.8 1.3-1.3 0.3-2.1 1.2-4.2 4.7-2.1 3.6-2.5 4.7-2.3 6.6 0.1 2 0.3 2.4 1.5 2.7 0.7 0.1 1.3 0.6 1.3 1 0 0.7-0.9 0.9-4.4 1-2.7 0.1-4.6 0-4.8-0.4z"/>
		<path fill-rule="evenodd" class="s1" d="m126.5 181.1c-0.4-0.7 0.7-1.5 2.1-1.5 0.8 0 0.9-0.8 0.9-7 0-7.4-0.1-7.7-2.7-7.7-0.7 0-1.1 0.6-1.3 2.7-0.4 2.5-0.6 2.7-1.7 2.7-1.3 0-1.4-0.1-1.2-3.3l0.2-3.4h8.6 8.7l-0.1 3.2c-0.2 1.8-0.5 3.5-0.7 3.7-0.9 1-2.2-0.8-2.2-2.9q0-3.3-2.7-2.4c-1 0.3-1.1 1-1.1 6.8 0 3.5 0 6.6 0 6.9 0 0.2 0.5 0.5 1.2 0.7 0.7 0.1 1.3 0.7 1.4 1.2 0.2 0.8-0.3 0.9-4.4 0.9-2.8 0-4.8-0.2-5-0.6z"/>
		<path fill-rule="evenodd" class="s1" d="m139.3 181c0-0.5 0.7-1.2 1.5-1.6 1.3-0.6 1.8-1.6 3.6-7.2 3.2-9.8 2.7-9 5.4-8.8l2.3 0.2 2.6 7.5c1.4 4.2 2.9 8 3.5 8.3 0.9 0.7 4.2 0.5 5-0.2 0.1-0.1 0.3-3.1 0.4-6.6v-6.4l-1.6-0.6c-0.8-0.3-1.5-1-1.5-1.5 0-0.7 0.7-0.8 4.8-0.8 4.5 0 4.9 0.1 4.9 1 0 0.8-0.4 1.1-1.4 1.3l-1.6 0.1v6.8 6.8l3.2 0.1 3.1 0.2v-2.7c0-2.6 0.5-3.3 2.2-3.3 0.3 0 0.5 1.8 0.5 4.1v4l-12.6-0.1c-9.4-0.1-12.6-0.3-12.7-0.8-0.2-0.4 0.3-0.9 1.1-1.2 1.6-0.6 1.6-0.6 0.8-2.5-0.6-1.2-1-1.3-3.8-1.3-3 0-3.2 0.1-3.7 1.4-0.8 2-0.7 2.3 0.8 2.7 0.7 0.1 1.3 0.6 1.3 1.1 0 0.6-0.9 0.7-4 0.7-3.2 0-4.1-0.1-4.1-0.7zm11.9-7.7c0-1.2-1.8-6.2-2.1-6.2-0.5 0-2.2 4.9-2.2 6.1 0 0.2 1 0.4 2.2 0.4 1.2 0 2.1-0.2 2.1-0.3z"/>
		<path fill-rule="evenodd" class="s1" d="m131.2 142.5c0-0.2 0.8-1.9 1.8-3.7 3.1-5.7 4.4-11 4.4-18.9 0-5.8-0.3-7.5-1.6-11.7-2.4-8-6.9-15.6-17.7-29.6-15.4-20.1-18.8-27.4-18.3-38.5 0.2-4.2 0.6-5.9 2.1-9.7 1.1-2.6 2.1-4.6 2.4-4.6 0.3 0 0.6 0.8 0.7 1.9 1.2 16.1 14.2 32.4 27.1 33.8 8.6 1 17.2-3.7 20.7-11 3.6-7.9-0.3-20.1-9.3-29.2-1.8-1.8-3.2-3.6-2.9-3.8 0.5-0.5 5.4 2 8.8 4.5 5.1 3.9 13.8 11.7 16.1 14.6 6 7.6 10.9 18.1 12.8 27.8 1.4 6.9 1.6 20 0.3 26.7-3.9 20.8-18.1 39.1-37.3 48.3-5.2 2.5-10.1 4-10.1 3.1z"/>
		<path fill-rule="evenodd" class="s1" d="m126.5 52c-4.6-2.2-7.5-7.1-7.4-12.1 0-5.6 2.5-9.6 7.4-12.1 5.5-2.8 11.7-1.4 16.1 3.5 3.3 3.7 4.1 8.6 2.3 13.3-1.1 3.1-5.2 7.2-7.7 8-3.4 0.9-8.1 0.7-10.7-0.6z"/>
	</g>
</svg>