<svg version="1.2" xmlns="http://www.w3.org/2000/svg" viewBox="0 0 224 225" width="500" height="502">
	<title>crystal_vector-svg</title>
	<style>
		.s0 { fill: #91c11f } 
		.s1 { fill: #4ba0db } 
	</style>
	<g>
	</g>
	<g>
		<path fill-rule="evenodd" class="s0" d="m86.1 220.6c-10.9-2.7-17.5-5.1-27.2-10.3-29.4-15.6-51.8-46.4-57.7-79.5-1.7-9.8-1.6-31.7 0.1-41.4 2.4-12.4 8.1-27.2 15-38.4 12.7-20.8 34.2-38 57.8-46.3 4.9-1.7 8.9-3.1 9-3.1 1 0-0.1 3.1-1.6 4.8-2.4 2.3-6.3 10.8-10.2 21.5-2.7 7.3-2.9 8.3-2.8 20.8 0.1 11.5 0.4 14.2 2.6 21.3 4.9 16.4 9.3 24.2 29 50.2 16.1 21.3 23.3 32 27.3 41.1 3 6.6 3.4 8.8 3.9 16.3 0.7 14.8-3.3 23.6-12.3 26.6-8.5 2.9-13.6 1-23.4-8.4-20.3-19.2-38.3-42.8-48.6-63.6-2.6-5.2-4.9-9-5-8.5-0.8 2 3.5 15.4 8 25.7 10.7 24.3 28.7 52.9 41.9 66.8 7.1 7.5 7.1 7.5-5.8 4.4z"/>
	</g>
	<g>
		<path fill-rule="evenodd" class="s1" d="m143.3 218c0-0.3 1.3-3.1 3-6.2 5.2-9.5 7.3-18.4 7.3-31.6 0-9.7-0.4-12.5-2.5-19.5-4.1-13.4-11.7-26.1-29.7-49.6-25.7-33.5-31.5-45.7-30.6-64.2 0.4-7.2 1-10 3.6-16.3 1.7-4.3 3.5-7.7 4-7.7 0.5 0 1 1.4 1.1 3.2 2 26.9 23.7 54.2 45.3 56.5 14.3 1.7 28.8-6.1 34.6-18.4 6-13.1-0.5-33.5-15.6-48.8-2.9-3-5.2-5.9-4.9-6.3 1-0.9 9.2 3.4 14.9 7.5 8.5 6.5 23.1 19.6 26.8 24.3 10 12.7 18.2 30.3 21.5 46.5 2.3 11.7 2.6 33.5 0.4 44.8-6.5 34.6-30.3 65.3-62.3 80.7-8.7 4.1-16.9 6.7-16.9 5.1z"/>
		<path fill-rule="evenodd" class="s1" d="m135.4 66.8c-7.6-3.7-12.5-12-12.4-20.3 0.1-9.4 4.2-16 12.5-20.2 9.2-4.7 19.5-2.4 26.8 5.8 5.5 6.3 7 14.4 4 22.2-2 5.2-8.7 12-13 13.4-5.6 1.6-13.6 1.2-17.9-0.9z"/>
	</g>
</svg>