<svg version="1.2" xmlns="http://www.w3.org/2000/svg" viewBox="0 0 226 56" width="226" height="56">
	<title>logo-svg</title>
	<style>
		.s0 { fill: #91c11f } 
		.s1 { fill: #18216d } 
	</style>
	<g>
	</g>
	<g>
		<path fill-rule="evenodd" class="s0" d="m23.2 57.7c-2.7-0.6-4.4-1.3-6.9-2.6-7.4-3.9-13-11.7-14.5-20.1-0.4-2.4-0.4-8 0-10.4 0.6-3.1 2-6.9 3.8-9.7 3.2-5.2 8.6-9.6 14.6-11.7 1.2-0.4 2.2-0.8 2.2-0.8 0.3 0 0 0.8-0.4 1.2-0.6 0.6-1.6 2.8-2.5 5.5-0.7 1.8-0.8 2.1-0.7 5.2 0 2.9 0.1 3.6 0.6 5.4 1.2 4.1 2.4 6.1 7.3 12.7 4.1 5.3 5.9 8 6.9 10.3 0.8 1.7 0.9 2.3 1 4.2 0.2 3.7-0.8 5.9-3.1 6.7-2.1 0.7-3.4 0.3-5.9-2.1-5.1-4.9-9.7-10.9-12.3-16.1-0.6-1.3-1.2-2.3-1.2-2.1-0.2 0.5 0.9 3.8 2 6.4 2.7 6.2 7.2 13.4 10.6 16.9 1.8 1.9 1.8 1.9-1.5 1.1z"/>
	</g>
	<g>
		<path fill-rule="evenodd" class="s1" d="m98.8 29.9c-1.5-0.3-3.5-2.2-4.1-3.9-1-2.5-0.3-6.2 1.5-8 2.5-2.5 5.8-2.8 8.2-0.8 1.1 0.9 1.2 1.4 1.2 2.6-0.2 1.6-1.2 2.5-2.3 1.8-0.7-0.5-0.8-1.2-0.3-2.8 0.2-0.7 0.1-0.9-0.9-1.1-2.5-0.5-4.4 1.3-4.8 4.6-0.7 5.1 4.7 8.2 6.9 4 0.7-1.3 1.7-1.6 2.1-0.6 0.2 0.7-1.5 3.2-2.6 3.8-1.1 0.6-3.4 0.8-4.9 0.4z"/>
		<path fill-rule="evenodd" class="s1" d="m116.8 29.8c-0.6-0.4-1-1.4-1.2-3-0.4-1.9-0.6-2.4-1.6-2.8-1.8-0.9-2.3-0.4-2.3 1.9 0 1.9 0.1 2.1 1.2 2.5 2.2 0.8 1.2 1.4-2.5 1.4-2.7 0-3.3-0.2-3.3-0.7 0-0.4 0.4-0.6 1.1-0.7l1.1-0.1-0.1-5.2c-0.1-5-0.1-5-1.2-5.3-0.5-0.1-0.9-0.5-0.9-0.8 0-0.5 0.8-0.6 4.9-0.6 4.4 0 5.1 0.1 6 0.8 0.9 0.7 1.2 1.3 1.3 2.6 0.1 1.4 0 1.8-1.1 2.7-1.1 1-1.1 1.2-0.6 2.4 0.3 0.6 0.6 1.7 0.8 2.4 0.3 1.6 1.3 1.3 1.6-0.6 0.3-2.1 1.2-2 1.1 0.3-0.2 3-2.3 4.3-4.3 2.8zm-0.9-8.3c0.1-0.1 0.3-0.7 0.5-1.3 0.1-0.9 0.1-1.2-0.7-1.8-1.2-0.8-3.4-0.8-3.7 0-0.4 0.9-0.4 3.3 0.1 3.6 0.3 0.4 3.3 0 3.8-0.5z"/>
		<path fill-rule="evenodd" class="s1" d="m140.6 30.1c-1.9-0.5-3.1-1.1-3.5-2.1-1.1-1.9 0.4-3.8 2.2-2.8 0.7 0.3 0.8 0.6 0.6 1.8-0.2 1.1-0.2 1.4 0.7 1.6 1.2 0.3 3-0.1 3.8-0.8 1.5-1.1-0.3-3-3.7-4-0.9-0.2-2.1-0.9-2.7-1.5-3.3-3.3 0.8-7.5 5.9-6.1 2.2 0.6 3.2 1.6 2.9 3.1 0 1-0.3 1.2-1.4 1.2-1.3 0.2-1.4 0.1-1.5-1.9 0-0.9-0.1-1-1.8-0.9-1.2 0.1-2.1 0.4-2.4 0.8-0.8 1.1 0.3 2.1 3.6 3.5 1.7 0.8 3.3 1.8 3.8 2.4 0.8 1.1 0.8 1.2 0.3 2.9-0.5 1-1 1.8-1.7 2.1-1.2 0.6-3.9 1-5.1 0.7z"/>
		<path fill-rule="evenodd" class="s1" d="m124.4 29.6c-0.3-0.7 0.2-1.2 1.4-1.2 1 0 1-0.1 0.8-2.4-0.1-1.9-0.5-2.9-2.1-5.2q-1.8-3-2.7-3c-0.8 0-1.8-0.9-1.3-1.3 0.3-0.4 5.3-0.4 6.5-0.1 1.2 0.3 1.2 0.9-0.1 1.2-0.6 0.2-1 0.4-1 0.5 0 0.6 2.1 3.8 2.4 3.8 0.5 0 2.4-2.9 2.4-3.5 0-0.3-0.4-0.6-0.8-0.7-0.5-0.2-0.7-0.5-0.5-0.9 0.3-0.9 6-0.7 6 0.2 0 0.2-0.6 0.7-1.3 0.9-1 0.2-1.6 0.9-3.2 3.5-1.5 2.7-1.8 3.5-1.7 5 0.1 1.4 0.2 1.7 1.1 2 0.6 0 1 0.4 1 0.7 0 0.5-0.7 0.7-3.3 0.8-2 0-3.4 0-3.6-0.3z"/>
		<path fill-rule="evenodd" class="s1" d="m151.5 29.5c-0.3-0.5 0.6-1.1 1.6-1.1 0.6 0 0.7-0.6 0.7-5.3 0-5.5-0.1-5.7-2-5.7-0.6 0-0.9 0.4-1 2-0.3 1.9-0.5 2-1.3 2-0.9 0-1 0-0.9-2.4l0.2-2.6h6.4 6.5l-0.1 2.4c-0.1 1.4-0.4 2.6-0.5 2.8-0.7 0.7-1.6-0.6-1.6-2.2q0-2.4-2.1-1.8c-0.7 0.2-0.8 0.8-0.8 5.1 0 2.6 0 4.9 0 5.1 0 0.2 0.4 0.4 0.9 0.6 0.5 0 1 0.5 1.1 0.9 0.1 0.6-0.3 0.6-3.3 0.6-2.1 0-3.6-0.1-3.8-0.4z"/>
		<path fill-rule="evenodd" class="s1" d="m161.1 29.4c0-0.4 0.5-0.9 1.1-1.2 1-0.4 1.4-1.2 2.7-5.4 2.4-7.3 2-6.7 4-6.5l1.8 0.1 1.9 5.6c1 3.2 2.2 6 2.6 6.2 0.7 0.5 3.1 0.4 3.7-0.1 0.1-0.1 0.3-2.3 0.3-5v-4.7l-1.2-0.5c-0.6-0.2-1.1-0.7-1.1-1.1 0-0.5 0.5-0.6 3.6-0.6 3.4 0 3.7 0.1 3.7 0.8 0 0.5-0.3 0.8-1.1 0.9l-1.2 0.1v5.1 5l2.4 0.1 2.3 0.2v-2c0-2 0.4-2.5 1.7-2.5 0.2 0 0.3 1.3 0.3 3.1v2.9h-9.4c-7-0.1-9.4-0.3-9.4-0.6-0.2-0.3 0.2-0.7 0.8-0.9 1.2-0.5 1.2-0.5 0.6-1.9-0.5-0.9-0.8-1-2.9-1-2.2 0-2.3 0.1-2.7 1.1-0.6 1.5-0.5 1.7 0.6 2 0.5 0.1 0.9 0.4 0.9 0.8 0 0.5-0.6 0.5-2.9 0.5-2.4 0-3.1 0-3.1-0.5zm8.9-5.7c0-0.9-1.4-4.7-1.6-4.7-0.4 0-1.6 3.7-1.6 4.6 0 0.1 0.7 0.3 1.6 0.3 0.9 0 1.6-0.2 1.6-0.2z"/>
		<path fill-rule="evenodd" class="s1" d="m37.6 57.1c0-0.1 0.4-0.8 0.8-1.6 1.3-2.4 1.9-4.6 1.9-8 0-2.4-0.2-3.1-0.7-4.9-1-3.4-2.9-6.6-7.5-12.5-6.5-8.5-7.9-11.6-7.7-16.2 0.1-1.8 0.2-2.5 0.9-4.1 0.4-1.1 0.9-2 1-2 0.1 0 0.2 0.4 0.3 0.8 0.5 6.8 6 13.7 11.4 14.3 3.6 0.4 7.3-1.6 8.7-4.7 1.6-3.3-0.1-8.4-3.9-12.3-0.7-0.7-1.3-1.5-1.2-1.6 0.2-0.2 2.3 0.9 3.7 1.9 2.2 1.7 5.8 5 6.8 6.2 2.5 3.2 4.6 7.6 5.4 11.7 0.6 2.9 0.7 8.4 0.1 11.3-1.6 8.8-7.6 16.5-15.7 20.4-2.2 1-4.3 1.6-4.3 1.3z"/>
		<path fill-rule="evenodd" class="s1" d="m35.7 18.9c-2-0.9-3.2-3-3.2-5.1q0-3.6 3.2-5.1c2.3-1.2 4.9-0.6 6.7 1.4 1.4 1.6 1.8 3.7 1 5.7-0.4 1.3-2.2 3-3.2 3.3-1.5 0.4-3.5 0.3-4.5-0.2z"/>
		<path id="Factory Healthcare" class="s0" aria-label="Factory Healthcare"  d="m85 38.1q0.5 0 0.7 0.3 0.1 0.2 0.1 0.6 0 1.2-1.3 1.1h-0.6q-1.1-0.1-2.1-0.1-1.1-0.1-2.2-0.1h-0.8q-0.3 2.7-0.5 4.9l3.1-0.1q0.7 0 0.9 0.2 0.2 0.3 0.2 0.7 0 0.6-0.3 0.9-0.4 0.4-1.1 0.4h-3l-0.2 0.8q-0.3 2.9-1.6 4.2-1.2 1.2-3.4 1.2-1.2 0-2.2-0.5-1-0.5-1.5-1.3-0.2-0.3-0.2-0.7 0-0.4 0.2-0.8 0.2-0.3 0.5-0.3 0.2 0 0.4 0.2 0.2 0.1 0.6 0.5 0.8 1.1 2.1 1.1 1 0 1.7-0.8 0.7-0.8 0.9-2.6l0.1-1h-0.8q-0.5 0-0.8-0.3-0.3-0.2-0.3-0.6 0-0.6 0.3-0.9 0.3-0.3 0.9-0.3 0.5 0 1 0 0.2-2 0.4-4.8-1.9 0.2-2.7 0.6-0.8 0.5-0.8 1.4 0 0.6 0.4 1.1 0.1 0.2 0.1 0.4 0 0.3-0.4 0.5-0.3 0.3-0.8 0.3-0.5 0-0.8-0.3-0.2-0.2-0.4-0.8-0.2-0.5-0.2-1.2 0-2.2 2.3-3.2 2.3-1 6.7-1 3 0 5.4 0.3zm-0.7 15q-1.2 0-1.8-0.8-0.7-0.8-0.7-2.1 0-1.5 0.7-2.8 0.6-1.3 1.7-2 1.2-0.8 2.4-0.8 0.4 0 0.5 0.1 0.2 0.2 0.3 0.6 0.3-0.1 0.8-0.1 0.8 0 0.8 0.6 0 0.4-0.2 1.8-0.5 2.1-0.5 2.9 0 0.3 0.2 0.4 0.1 0.2 0.3 0.2 0.4 0 0.9-0.4 0.5-0.5 1.3-1.5 0.2-0.2 0.5-0.2 0.2 0 0.3 0.2 0.2 0.2 0.2 0.6 0 0.7-0.4 1.1-0.7 0.9-1.5 1.6-0.9 0.6-1.6 0.6-0.6 0-1.1-0.4-0.5-0.4-0.8-1.1-0.9 1.5-2.3 1.5zm0.6-1.8q0.4 0 0.8-0.5 0.3-0.5 0.5-1.2l0.7-3.4q-0.8 0.1-1.4 0.6-0.7 0.6-1.1 1.5-0.3 0.9-0.3 1.9 0 0.5 0.2 0.8 0.2 0.3 0.6 0.3zm9 1.8q-1.7 0-2.7-1-1-1-1-2.6 0-1.5 0.6-2.6 0.6-1.1 1.5-1.7 0.9-0.6 1.9-0.6 1 0 1.5 0.6 0.6 0.6 0.6 1.5 0 0.8-0.3 1.3-0.4 0.5-0.9 0.5-0.3 0-0.6-0.2-0.2-0.1-0.2-0.4 0-0.1 0.1-0.3 0-0.2 0-0.2 0.1-0.3 0.1-0.5 0-0.3-0.1-0.4-0.1-0.1-0.3-0.1-0.4 0-0.8 0.4-0.4 0.3-0.6 0.9-0.2 0.7-0.2 1.4 0 2.1 1.8 2.1 0.8 0 1.6-0.5 0.9-0.5 1.7-1.5 0.2-0.2 0.5-0.2 0.2 0 0.3 0.2 0.2 0.2 0.2 0.6 0 0.7-0.3 1.1-0.9 1.1-2.1 1.6-1.2 0.6-2.3 0.6zm11.4-4.1q0.2 0 0.3 0.2 0.2 0.2 0.2 0.6 0 0.7-0.4 1.1-0.8 1-1.7 1.6-0.9 0.6-2.1 0.6-3.7 0-3.7-5.2 0-0.8 0.1-1.6h-0.7q-0.5 0-0.7-0.2-0.2-0.2-0.2-0.6 0-1 0.8-1h1q0.3-2 1-3.6 0.6-1.7 1.5-2.6 0.9-1 1.9-1 0.7 0 1.2 0.7 0.4 0.6 0.4 1.6 0 2.8-2.3 4.9h2q0.3 0 0.4 0.1 0.1 0.1 0.1 0.5 0 1.2-2 1.2h-2.2q0 0.9 0 1.4 0 1.9 0.4 2.7 0.4 0.7 1.4 0.7 0.8 0 1.4-0.5 0.6-0.4 1.4-1.4 0.2-0.2 0.5-0.2zm-3.2-10q-0.3 0-0.6 0.7-0.3 0.7-0.6 1.9-0.3 1.2-0.5 2.6 1-0.9 1.6-2 0.5-1.2 0.5-2.1 0-1.1-0.4-1.1zm11.4 8.5q0.2 0 0.3 0.2 0.2 0.2 0.2 0.6 0 0.9-0.6 1-1 0.4-2.3 0.5-0.4 1.5-1.4 2.4-1 0.9-2.3 0.9-1.1 0-1.8-0.5-0.8-0.6-1.2-1.4-0.4-0.9-0.4-1.9 0-1.4 0.5-2.4 0.6-1.1 1.5-1.7 0.9-0.6 2-0.6 1.4 0 2.2 0.9 0.9 1 1 2.4 0.9-0.1 2-0.4 0.2 0 0.3 0zm-5.9 3.7q0.6 0 1-0.5 0.4-0.5 0.5-1.3-0.5-0.4-0.8-1-0.3-0.6-0.3-1.3 0-0.3 0-0.6-0.8 0-1.3 0.7-0.4 0.7-0.4 1.9 0 1 0.4 1.6 0.4 0.5 0.9 0.5zm6.1 1.9q-0.7 0-1-0.7-0.2-0.8-0.2-2.3 0-2.4 0.6-4.5 0.2-0.5 0.5-0.7 0.4-0.3 1.1-0.3 0.3 0 0.5 0.1 0.1 0.1 0.1 0.3 0 0.3-0.2 1.3-0.2 0.8-0.3 1.3-0.1 0.5-0.2 1.3 0.6-1.5 1.3-2.5 0.8-1 1.5-1.4 0.7-0.4 1.3-0.4 1.1 0 1.1 1.2 0 0.2-0.1 1.1-0.2 0.7-0.2 0.9 0 0.6 0.5 0.6 0.5 0 1.3-0.7 0.2-0.3 0.5-0.3 0.2 0 0.3 0.2 0.2 0.2 0.2 0.6 0 0.6-0.4 1-0.5 0.5-1.2 0.9-0.6 0.4-1.4 0.4-0.9 0-1.4-0.5-0.5-0.5-0.5-1.3 0-0.3 0-0.6 0.1-0.3 0.1-0.4 0-0.3-0.2-0.3-0.3 0-0.8 0.6-0.4 0.6-0.8 1.6-0.5 1-0.7 2-0.2 0.9-0.5 1.2-0.2 0.3-0.8 0.3zm16.1-4.1q0.3 0 0.4 0.3 0.1 0.2 0.1 0.5 0 0.4-0.1 0.7-0.1 0.2-0.4 0.4l-3.5 2.3q-0.6 3.7-1.8 5.9-1 2.1-2.8 2.1-0.9 0-1.5-0.6-0.5-0.5-0.5-1.5 0-0.8 0.3-1.7 0.4-0.9 1.5-2 1.1-1.2 3-2.6v-0.4q0.2-0.7 0.3-2-0.3 1.3-1 2-0.6 0.7-1.4 0.7-0.8 0-1.3-0.7-0.5-0.8-0.5-1.9 0-1.4 0.2-2.5 0.2-1.1 0.6-2.4 0.2-0.5 0.5-0.8 0.3-0.2 1-0.2 0.4 0 0.6 0.1 0.1 0.2 0.1 0.4 0 0.2-0.2 1-0.2 0.7-0.3 1.2-0.1 0.7-0.2 1.4-0.1 0.7-0.1 1.1 0 0.7 0.3 0.7 0.3 0 0.7-0.5 0.4-0.6 0.9-1.7 0.4-1.1 0.9-2.7 0.1-0.5 0.4-0.8 0.3-0.2 0.9-0.2 0.4 0 0.6 0.1 0.1 0.1 0.1 0.4 0 0.4-0.4 3.1l-0.5 2.9q1.4-1.1 2.7-1.9 0.2-0.2 0.4-0.2zm-7.9 10.4q0.5 0 1-1 0.6-1 1.2-3.5-1.4 1.2-2.1 2.2-0.6 0.9-0.6 1.6 0 0.3 0.1 0.5 0.2 0.2 0.4 0.2zm28.8-10.4q0.2 0 0.3 0.2 0.2 0.2 0.2 0.6 0 0.7-0.4 1.1-1.8 2.2-3.8 2.2-1.7 0-2.8-1.4-1-1.3-1-3.8 0-0.6 0-1.3-1.1 0.3-2.5 0.4-1 0-1.3 0.1-0.4 1.8-1 4.5-0.4 1.5-1.5 1.5-1.1 0-1.1-1 0-0.3 0.1-0.7 0.6-2.4 0.9-4.1h-0.8q-0.6 0-0.9-0.2-0.3-0.2-0.3-0.7 0-0.6 0.4-0.9 0.3-0.2 1.1-0.3h1q0.4-2.6 0.4-3.9 0-0.8-0.2-1.1-0.3-0.3-0.7-0.3-1.2 0-2.8 2.1-0.3 0.3-0.5 0.3-0.3 0-0.5-0.3-0.2-0.2-0.2-0.6 0-0.5 0.5-1.1 0.8-1.1 2-1.8 1.2-0.8 2.4-0.8 1.2 0 1.8 0.8 0.7 0.8 0.7 2.5 0 1.5-0.4 4.1l1.7-0.1q1.2-0.1 2-0.2 0.3-2 1-3.7 0.6-1.7 1.6-2.8 1-1.1 2.2-1.1 0.9 0 1.4 0.7 0.6 0.7 0.6 1.9 0 4.5-4.6 6.2 0 0.7 0 1.5 0 1.9 0.4 2.7 0.5 0.7 1.3 0.7 0.8 0 1.4-0.3 0.6-0.4 1.4-1.4 0.2-0.2 0.5-0.2zm-2.5-10.2q-0.4 0-0.8 0.7-0.4 0.7-0.8 2-0.4 1.2-0.7 2.7 1.5-0.6 2.2-1.7 0.6-1.1 0.6-2.8 0-0.5-0.1-0.7-0.1-0.2-0.4-0.2zm11.9 10.2q0.2 0 0.3 0.2 0.2 0.2 0.2 0.6 0 0.7-0.4 1.1-0.6 0.8-1.8 1.5-1.3 0.7-2.6 0.7-1.9 0-3-1-1-1.1-1-2.8 0-1.3 0.5-2.3 0.5-1.1 1.4-1.8 1-0.6 2.2-0.6 1 0 1.6 0.6 0.7 0.7 0.7 1.7 0 1.3-0.9 2.2-0.9 0.8-3.1 1.4 0.5 0.8 1.8 0.8 0.8 0 1.8-0.6 1-0.5 1.8-1.5 0.2-0.2 0.5-0.2zm-4.6-2.6q-0.6 0-1.1 0.7-0.4 0.8-0.4 1.9v0.1q1-0.3 1.6-0.8 0.6-0.5 0.6-1.2 0-0.3-0.2-0.5-0.1-0.2-0.5-0.2zm5.7 6.7q-1.1 0-1.7-0.8-0.7-0.8-0.7-2.1 0-1.5 0.7-2.8 0.6-1.3 1.7-2 1.1-0.8 2.4-0.8 0.4 0 0.5 0.1 0.2 0.2 0.2 0.6 0.4-0.1 0.8-0.1 0.9 0 0.9 0.6 0 0.4-0.3 1.8-0.4 2.1-0.4 2.9 0 0.3 0.2 0.4 0.1 0.2 0.3 0.2 0.4 0 0.8-0.4 0.5-0.5 1.4-1.5 0.2-0.2 0.4-0.2 0.3 0 0.4 0.2 0.2 0.2 0.2 0.6 0 0.7-0.4 1.1-0.7 0.9-1.6 1.6-0.8 0.6-1.6 0.6-0.6 0-1.1-0.4-0.4-0.4-0.7-1.1-0.9 1.5-2.4 1.5zm0.7-1.8q0.4 0 0.8-0.5 0.3-0.5 0.5-1.2l0.6-3.4q-0.7 0.1-1.4 0.6-0.6 0.6-1 1.5-0.3 0.9-0.3 1.9 0 0.5 0.2 0.8 0.2 0.3 0.6 0.3zm12.4-2.3q0.3 0 0.4 0.2 0.1 0.2 0.1 0.6 0 0.7-0.3 1.1-0.8 1-1.7 1.6-0.9 0.6-2.1 0.6-1.5 0-2.3-1.5-0.8-1.4-0.8-3.7 0-2.2 0.6-5 0.6-2.8 1.7-4.8 1.1-2 2.6-2 0.9 0 1.4 0.8 0.5 0.8 0.5 2.3 0 2.1-1.2 4.9-1.2 2.9-3.3 5.6 0.2 0.8 0.5 1.1 0.2 0.3 0.7 0.3 0.8 0 1.3-0.4 0.6-0.4 1.4-1.5 0.2-0.2 0.5-0.2zm-2.2-11.1q-0.4 0-0.9 1.5-0.6 1.4-1 3.7-0.3 2.2-0.4 4.2 1.3-2.1 2.1-4.2 0.7-2.1 0.7-3.9 0-1.3-0.5-1.3zm9.3 11.1q0.2 0 0.4 0.2 0.1 0.2 0.1 0.6 0 0.7-0.3 1.1-0.8 1-1.7 1.6-1 0.6-2.1 0.6-3.7 0-3.7-5.2 0-0.8 0-1.6h-0.7q-0.5 0-0.7-0.2-0.2-0.2-0.2-0.6 0-1 0.8-1h1.1q0.3-2 0.9-3.6 0.6-1.7 1.5-2.6 0.9-1 1.9-1 0.8 0 1.2 0.7 0.4 0.6 0.4 1.6 0 2.8-2.3 4.9h2q0.3 0 0.4 0.1 0.2 0.1 0.2 0.5 0 1.2-2.1 1.2h-2.2q0 0.9 0 1.4 0 1.9 0.4 2.7 0.5 0.7 1.4 0.7 0.8 0 1.4-0.5 0.6-0.4 1.4-1.4 0.2-0.2 0.5-0.2zm-3.2-10q-0.2 0-0.6 0.7-0.3 0.7-0.6 1.9-0.3 1.2-0.5 2.6 1.1-0.9 1.6-2 0.5-1.2 0.5-2.1 0-1.1-0.4-1.1zm12.2 10q0.3 0 0.4 0.2 0.1 0.2 0.1 0.6 0 0.7-0.3 1.1-0.8 1-1.7 1.6-0.9 0.6-2 0.6-0.9 0-1.4-0.5-0.5-0.6-0.5-1.6 0-0.5 0.3-1.8 0.2-1.1 0.2-1.5 0-0.3-0.2-0.3-0.2 0-0.6 0.6-0.5 0.6-0.9 1.6-0.4 1-0.7 2-0.3 1.5-1.7 1.5-0.5 0-0.7-0.4-0.2-0.4-0.2-1.4 0-0.6 0-0.9l0.1-1.5q0-2.7 0.5-5.7 0.6-3 1.7-5.1 1.1-2 2.7-2 0.8 0 1.3 0.7 0.5 0.7 0.5 1.8 0 1.9-1 3.8-1.1 2-3.5 4.6-0.1 0.9-0.1 1.9 0.6-1.5 1.4-2.5 0.7-1 1.4-1.4 0.7-0.4 1.3-0.4 1.2 0 1.2 1.2 0 0.7-0.4 2.5-0.4 1.6-0.4 2.1 0 0.7 0.6 0.7 0.3 0 0.8-0.4 0.5-0.5 1.3-1.5 0.3-0.2 0.5-0.2zm-5.3-11.1q-0.3 0-0.7 0.9-0.4 0.9-0.8 2.5-0.4 1.6-0.6 3.4 1.1-1.3 1.8-2.8 0.8-1.6 0.8-2.9 0-0.5-0.2-0.8-0.1-0.3-0.3-0.3zm7.8 15.2q-1.8 0-2.7-1-1-1-1-2.6 0-1.5 0.6-2.6 0.5-1.1 1.5-1.7 0.9-0.6 1.9-0.6 1 0 1.5 0.6 0.6 0.6 0.6 1.5 0 0.8-0.4 1.3-0.3 0.5-0.8 0.5-0.4 0-0.6-0.2-0.2-0.1-0.2-0.4 0-0.1 0-0.3 0.1-0.2 0.1-0.2 0.1-0.3 0.1-0.5 0-0.3-0.1-0.4-0.1-0.1-0.4-0.1-0.4 0-0.7 0.4-0.4 0.3-0.6 0.9-0.2 0.7-0.2 1.4 0 2.1 1.8 2.1 0.7 0 1.6-0.5 0.8-0.5 1.7-1.5 0.2-0.2 0.5-0.2 0.2 0 0.3 0.2 0.2 0.2 0.2 0.6 0 0.7-0.4 1.1-0.8 1.1-2 1.6-1.2 0.6-2.3 0.6zm5.2 0q-1.1 0-1.7-0.8-0.7-0.8-0.7-2.1 0-1.5 0.7-2.8 0.6-1.3 1.7-2 1.1-0.8 2.4-0.8 0.4 0 0.5 0.1 0.1 0.2 0.2 0.6 0.4-0.1 0.8-0.1 0.9 0 0.9 0.6 0 0.4-0.3 1.8-0.4 2.1-0.4 2.9 0 0.3 0.1 0.4 0.2 0.2 0.4 0.2 0.3 0 0.8-0.4 0.5-0.5 1.3-1.5 0.3-0.2 0.5-0.2 0.3 0 0.4 0.2 0.1 0.2 0.1 0.6 0 0.7-0.3 1.1-0.7 0.9-1.6 1.6-0.8 0.6-1.6 0.6-0.6 0-1.1-0.4-0.5-0.4-0.7-1.1-0.9 1.5-2.4 1.5zm0.7-1.8q0.4 0 0.7-0.5 0.4-0.5 0.6-1.2l0.6-3.4q-0.7 0.1-1.4 0.6-0.6 0.6-1 1.5-0.4 0.9-0.4 1.9 0 0.5 0.3 0.8 0.2 0.3 0.6 0.3zm6.9 1.8q-0.7 0-1-0.7-0.3-0.8-0.3-2.3 0-2.4 0.7-4.5 0.1-0.5 0.5-0.7 0.4-0.3 1-0.3 0.4 0 0.6 0.1 0.1 0.1 0.1 0.3 0 0.3-0.3 1.3-0.2 0.8-0.3 1.3-0.1 0.5-0.1 1.3 0.6-1.5 1.3-2.5 0.7-1 1.4-1.4 0.7-0.4 1.3-0.4 1.2 0 1.2 1.2 0 0.2-0.1 1.1-0.2 0.7-0.2 0.9 0 0.6 0.5 0.6 0.5 0 1.3-0.7 0.2-0.3 0.4-0.3 0.3 0 0.4 0.2 0.1 0.2 0.1 0.6 0 0.6-0.3 1-0.5 0.5-1.2 0.9-0.7 0.4-1.4 0.4-1 0-1.5-0.5-0.5-0.5-0.5-1.3 0-0.3 0.1-0.6 0-0.3 0-0.4 0-0.3-0.2-0.3-0.2 0-0.7 0.6-0.4 0.6-0.9 1.6-0.4 1-0.7 2-0.2 0.9-0.4 1.2-0.3 0.3-0.8 0.3zm14.9-4.1q0.2 0 0.4 0.2 0.1 0.2 0.1 0.6 0 0.7-0.3 1.1-0.7 0.8-1.9 1.5-1.2 0.7-2.6 0.7-1.9 0-3-1-1-1.1-1-2.8 0-1.3 0.5-2.3 0.5-1.1 1.5-1.8 0.9-0.6 2.1-0.6 1 0 1.6 0.6 0.7 0.7 0.7 1.7 0 1.3-0.9 2.2-0.9 0.8-3 1.4 0.4 0.8 1.7 0.8 0.8 0 1.8-0.6 1.1-0.5 1.8-1.5 0.2-0.2 0.5-0.2zm-4.5-2.6q-0.7 0-1.2 0.7-0.4 0.8-0.4 1.9v0.1q1-0.3 1.7-0.8 0.6-0.5 0.6-1.2 0-0.3-0.2-0.5-0.2-0.2-0.5-0.2z"/>
	</g>
</svg>