<svg version="1.2" xmlns="http://www.w3.org/2000/svg" viewBox="0 0 226 227" width="510" height="512">
	<title>logo-svg</title>
	<style>
		.s0 { fill: #91c11f } 
		.s1 { fill: #18216d } 
	</style>
	<g>
	</g>
	<g>
		<path fill-rule="evenodd" class="s0" d="m87.8 221.9c-10.9-2.5-17.6-5-27.3-10.2-29.5-15.6-51.9-46.6-57.8-79.8-1.7-9.7-1.7-31.8 0.2-41.3 2.3-12.4 8-27.4 14.9-38.6 12.7-20.8 34.3-38 58-46.4 4.8-1.7 9-3.2 9-3.2 1 0 0 3.2-1.7 4.9-2.3 2.3-6.3 10.9-10.2 21.6-2.7 7.4-2.8 8.2-2.7 20.8 0 11.5 0.4 14.2 2.5 21.4 4.9 16.3 9.4 24.2 29.2 50.3 16.1 21.3 23.3 32 27.3 41 3 6.7 3.4 8.9 3.9 16.5 0.6 14.9-3.2 23.6-12.3 26.6-8.5 2.9-13.5 1.2-23.6-8.4-20.3-19.2-38.4-42.9-48.6-63.6-2.7-5.4-4.9-9.1-5-8.6-0.9 2 3.5 15.4 8 25.6 10.7 24.5 28.7 53.2 42.1 67.1 7 7.5 7 7.5-5.9 4.3z"/>
	</g>
	<g>
		<path fill-rule="evenodd" class="s1" d="m145.1 219.4c0-0.3 1.4-3.2 3-6.2 5.2-9.5 7.4-18.4 7.4-31.7 0-9.7-0.5-12.5-2.7-19.6-4-13.4-11.5-26.1-29.6-49.6-25.8-33.6-31.5-45.9-30.7-64.5 0.3-7 1-9.9 3.5-16.2 1.9-4.4 3.5-7.7 4-7.7 0.6 0 1.1 1.3 1.2 3.2 2 26.9 23.8 54.2 45.4 56.6 14.4 1.7 28.8-6.2 34.7-18.4 6-13.3-0.5-33.7-15.6-49-3-3-5.3-6-4.8-6.3 0.8-0.9 9 3.3 14.7 7.5 8.6 6.5 23.1 19.6 27 24.5 10 12.7 18.3 30.3 21.4 46.5 2.4 11.6 2.7 33.6 0.5 44.8-6.5 34.8-30.3 65.5-62.5 80.9-8.7 4.2-16.9 6.7-16.9 5.2z"/>
		<path fill-rule="evenodd" class="s1" d="m137.2 67.8c-7.7-3.7-12.5-11.9-12.4-20.3 0-9.4 4.2-16.1 12.4-20.3 9.3-4.7 19.6-2.3 27 5.9 5.6 6.2 6.9 14.4 3.9 22.3-1.9 5.2-8.7 12-12.9 13.4-5.7 1.5-13.6 1.2-18-1z"/>
	</g>
</svg>